<svg class="icon" width="64" height="64" viewBox="0 0 1024 1024" xmlns="http://www.w3.org/2000/svg"><path d="M689.536 192c26.816 0 50.795 16.64 60.203 41.707l78.08 207.978 67.754-39.125 27.563 47.787-50.71 29.269a64.213 64.213 0 0 1 27.158 52.523v202.368a64.299 64.299 0 0 1-64.299 64.298h-27.648v75.862h-55.146v-75.862H255.957v75.862h-55.104v-75.862h-27.669a64.299 64.299 0 0 1-64.32-64.298V532.139a64.213 64.213 0 0 1 27.2-52.523l-50.73-29.27 27.583-47.786 67.734 39.104 78.08-207.957A64.299 64.299 0 0 1 318.933 192h370.603zm145.728 342.955h-662.08v199.552h662.101V534.955zm-556.288 50.09a41.387 41.387 0 1 1 0 82.752 41.387 41.387 0 0 1 0-82.752zm455.125 0a41.387 41.387 0 1 1 0 82.752 41.387 41.387 0 0 1 0-82.752zM689.536 256.3H318.933l-79.402 211.52h529.386l-79.36-211.52zm-79.573 46.037v62.059h-206.87v-62.08h206.87z"/></svg>