<svg width="16" height="15" xmlns="http://www.w3.org/2000/svg"><g stroke="#FFF" stroke-width=".1"><path d="M8 1C4.134 1 1 4.207 1 8.165c0 2.344 1.1 4.424 2.8 5.731l.001-.002a.488.488 0 0 0 .303.106.498.498 0 0 0 .492-.504.506.506 0 0 0-.242-.434A6.103 6.103 0 0 1 3.02 11.62l.604-.357a.454.454 0 0 0 .16-.612.432.432 0 0 0-.598-.163l-.604.356a6.193 6.193 0 0 1-.582-2.232h.694c.242 0 .438-.2.438-.447a.442.442 0 0 0-.438-.448h-.694a6.26 6.26 0 0 1 .585-2.24l.601.356c.21.124.478.05.598-.163a.454.454 0 0 0-.16-.612l-.6-.354a6.128 6.128 0 0 1 1.594-1.632l.346.615c.12.214.388.287.597.163a.454.454 0 0 0 .16-.611l-.347-.616a5.857 5.857 0 0 1 2.187-.599v.711c0 .248.196.448.438.448s.437-.2.437-.448v-.71a5.887 5.887 0 0 1 2.181.595l-.348.619a.454.454 0 0 0 .16.611c.209.124.477.05.597-.163l.349-.619a6.102 6.102 0 0 1 1.6 1.636l-.601.354a.454.454 0 0 0-.16.612c.12.214.388.287.598.163l.601-.355c.325.684.53 1.441.585 2.239h-.694c-.242 0-.438.2-.438.448 0 .247.196.447.438.447h.694a6.241 6.241 0 0 1-.582 2.232l-.604-.356a.432.432 0 0 0-.598.163.454.454 0 0 0 .16.612l.604.357a6.11 6.11 0 0 1-1.37 1.47l.003.005a.506.506 0 0 0-.194.401c0 .279.22.504.492.504a.486.486 0 0 0 .352-.151A7.21 7.21 0 0 0 15 8.165C15 4.207 11.866 1 8 1z"/><path d="M10.155 5.88L8.436 7.256h0A.956.956 0 0 0 8 7.152a.996.996 0 0 0-.984 1.007c0 .557.44 1.008.984 1.008s.984-.451.984-1.008a.966.966 0 0 0-.017-.19l1.726-1.383a.455.455 0 0 0 .076-.628.43.43 0 0 0-.614-.077z"/></g></svg>