<svg class="icon" width="200" height="200" viewBox="0 0 1024 1024" xmlns="http://www.w3.org/2000/svg"><path d="M512 508.5c-4.5 0-9-1-13.2-2.8L149.7 347.9c-11.5-5.2-18.8-16.6-18.8-29.2s7.4-24 18.8-29.2l349.2-157.8c8.3-3.8 18-3.8 26.3 0l349.2 157.8c11.5 5.2 18.8 16.6 18.8 29.2s-7.4 24-18.8 29.2L525.2 505.7c-4.2 1.9-8.7 2.8-13.2 2.8zM240.5 318.7L512 441.4l271.5-122.7L512 196 240.5 318.7z"/><path d="M512 697.6c-4.5 0-9-1-13.2-2.8L149.7 536.9c-16.1-7.3-23.3-26.3-16-42.3 7.3-16.2 26.4-23.2 42.3-16l336 151.9 336-151.9c16-7.2 35.1-.2 42.3 16 7.3 16.1.1 35-16 42.3L525.2 694.8c-4.2 1.8-8.7 2.8-13.2 2.8z"/><path d="M512 886.7c-4.5 0-9-1-13.2-2.8L149.7 726c-16.1-7.3-23.3-26.3-16-42.3 7.3-16.1 26.4-23.2 42.3-16l336 151.9 336-151.9c16-7.2 35.1-.1 42.3 16 7.3 16.1.1 35-16 42.3L525.2 883.9c-4.2 1.8-8.7 2.8-13.2 2.8z"/></svg>