<svg class="icon" width="64" height="64" viewBox="0 0 1024 1024" xmlns="http://www.w3.org/2000/svg"><path d="M469.333 151.808v64.555c-144.746 20.693-256 145.173-256 295.637 0 164.95 133.718 298.667 298.667 298.667 150.464 0 274.944-111.254 295.637-256h64.555c-21.12 180.181-174.336 320-360.192 320-200.299 0-362.667-162.368-362.667-362.667 0-185.856 139.819-339.072 320-360.192zM512 149.333c197.973 0 358.933 158.656 362.603 355.776l.064 6.891H512V149.333zm64 70.87V448h227.797a299.093 299.093 0 0 0-220.885-226.197l-6.912-1.6z"/></svg>