<svg class="icon" width="64" height="64" viewBox="0 0 1024 1024" xmlns="http://www.w3.org/2000/svg"><path d="M592.235 149.333l6.784.107a111.147 111.147 0 0 1 95.872 158.421h133.077a64 64 0 0 1 64 64v75.798a64 64 0 0 1-64 64h-3.947v298.346a64 64 0 0 1-64 64H276.608a64 64 0 0 1-64-64l-.021-298.346h-3.947a64 64 0 0 1-64-64V371.86a64 64 0 0 1 64-64h122.41a111.147 111.147 0 0 1 95.873-158.442l6.784-.086a112.853 112.853 0 0 1 79.253 32.384 112.81 112.81 0 0 1 79.275-32.384zM484.33 511.66H276.587v298.346l207.744-.021V511.659zm275.69 0H552.277v298.325h207.744V511.68zM484.331 371.84H208.64v75.819h3.925v-1.942l271.744-.021V371.84zm343.637 0h-275.69v73.856l271.743.021v1.942h3.947V371.86zM433.707 213.333h-2.091a47.147 47.147 0 0 0 0 94.294h47.36V262.57c0-5.547.427-10.987 1.173-16.299a49.216 49.216 0 0 0-46.421-32.939zm160.597 0h-2.09a49.259 49.259 0 0 0-46.465 32.96c.79 5.291 1.174 10.731 1.174 16.278v45.056h47.36a47.147 47.147 0 0 0 47.04-43.776l.128-3.371c0-26.027-21.12-47.147-47.147-47.147z"/></svg>