<svg class="icon" width="200" height="200" viewBox="0 0 1024 1024" xmlns="http://www.w3.org/2000/svg"><path d="M859.6 204H603.9v-37c0-54.4-44.2-98.6-98.6-98.6H164.4c-54.4 0-98.6 44.2-98.6 98.6v788.6h892.3v-653c.1-54.4-44.1-98.6-98.5-98.6zM538.2 889.9H131.5V167c0-18.1 14.7-32.9 32.9-32.9h340.9c18.1 0 32.9 14.7 32.9 32.9v722.9zm354.3 0H603.9V269.7h255.7c18.1 0 32.9 14.7 32.9 32.9v587.3z"/><path d="M439.6 936.6h-64v-212c0-8.8-7.2-16-16-16h-64c-8.8 0-16 7.2-16 16v212h-64v-228c0-35.3 28.7-64 64-64h96c35.3 0 64 28.7 64 64v228zm-44-599h-136c-17.6 0-32-14.4-32-32s14.4-32 32-32h136c17.6 0 32 14.4 32 32s-14.4 32-32 32zm0 151.2h-136c-17.6 0-32-14.4-32-32s14.4-32 32-32h136c17.6 0 32 14.4 32 32s-14.4 32-32 32zm401.1-7.5h-96c-17.6 0-32-14.4-32-32s14.4-32 32-32h96c17.6 0 32 14.4 32 32s-14.4 32-32 32zm3.5 126.7h-96c-17.6 0-32-14.4-32-32s14.4-32 32-32h96c17.6 0 32 14.4 32 32s-14.4 32-32 32zm0 121.5h-96c-17.6 0-32-14.4-32-32s14.4-32 32-32h96c17.6 0 32 14.4 32 32s-14.4 32-32 32z"/></svg>