<svg class="icon" viewBox="0 0 1024 1024" xmlns="http://www.w3.org/2000/svg" width="200" height="200"><defs><style/></defs><path d="M744.727 802.91c-38.493 0-69.818-31.326-69.818-69.82s31.325-69.817 69.818-69.817 69.818 31.325 69.818 69.818-31.325 69.818-69.818 69.818zm110.778 14.87a138.845 138.845 0 0 0 28.859-84.69c0-77.009-62.627-139.635-139.637-139.635S605.091 656.08 605.091 733.09s62.627 139.636 139.636 139.636c19.852 0 38.68-4.212 55.785-11.706.419.466.559 1.047.977 1.49l69.819 69.818c6.819 6.819 15.755 10.216 24.692 10.216a34.956 34.956 0 0 0 24.692-59.601l-65.187-65.164zm28.859-445.416A11.636 11.636 0 0 1 872.727 384h-221.09A11.636 11.636 0 0 1 640 372.364V151.273a11.636 11.636 0 0 1 11.636-11.637h221.091a11.636 11.636 0 0 1 11.637 11.637v221.09zM872.727 69.818h-221.09c-44.917 0-81.455 36.538-81.455 81.455v221.09c0 44.917 36.538 81.455 81.454 81.455h221.091c44.917 0 81.455-36.538 81.455-81.454V151.273c0-44.917-36.538-81.455-81.455-81.455zM384 372.364A11.636 11.636 0 0 1 372.364 384H151.273a11.636 11.636 0 0 1-11.637-11.636V151.273a11.636 11.636 0 0 1 11.637-11.637h221.09A11.636 11.636 0 0 1 384 151.273v221.09zM372.364 69.818H151.273c-44.917 0-81.455 36.538-81.455 81.455v221.09c0 44.917 36.538 81.455 81.455 81.455h221.09c44.917 0 81.455-36.538 81.455-81.454V151.273c0-44.917-36.538-81.455-81.454-81.455zM384 872.728a11.636 11.636 0 0 1-11.636 11.636H151.273a11.636 11.636 0 0 1-11.637-11.637v-221.09A11.636 11.636 0 0 1 151.273 640h221.09A11.636 11.636 0 0 1 384 651.636v221.091zm-11.636-302.546H151.273c-44.917 0-81.455 36.538-81.455 81.454v221.091c0 44.917 36.538 81.455 81.455 81.455h221.09c44.917 0 81.455-36.538 81.455-81.455v-221.09c0-44.917-36.538-81.455-81.454-81.455z"/></svg>