<svg xmlns="http://www.w3.org/2000/svg" width="13" height="13" viewBox="0 0 13 13">
  <defs>
    <style>
      .cls-1 {
        fill: #333;
      }
    </style>
  </defs>
  <path id="路径_67" data-name="路径 67" class="cls-1" d="M9.75,4.875a.808.808,0,0,0-.571,1.384.808.808,0,1,0,1.142-1.142A.78.78,0,0,0,9.75,4.875ZM6.5,10.563a6.421,6.421,0,0,1-1.371-.152L3.212,11.566l.026-1.892a5.223,5.223,0,0,1-1.771-1.72A4.2,4.2,0,0,1,.813,5.688a4.268,4.268,0,0,1,.762-2.444A5.311,5.311,0,0,1,3.644,1.467,6.3,6.3,0,0,1,6.5.813a5.966,5.966,0,0,1,4.024,1.428,4.4,4.4,0,0,1,0,6.893A5.968,5.968,0,0,1,6.5,10.563ZM6.5,0A7.093,7.093,0,0,0,3.237.762,6.1,6.1,0,0,0,.87,2.831,5.053,5.053,0,0,0,0,5.688,4.981,4.981,0,0,0,.654,8.169a5.852,5.852,0,0,0,1.784,1.949V13l2.844-1.727a7.556,7.556,0,0,0,1.219.1,7.093,7.093,0,0,0,3.263-.762A6.1,6.1,0,0,0,12.13,8.544a5.125,5.125,0,0,0,0-5.713A6.1,6.1,0,0,0,9.763.762,7.093,7.093,0,0,0,6.5,0ZM3.25,4.875a.808.808,0,0,0-.571,1.384.8.8,0,0,0,1.142,0A.813.813,0,0,0,3.25,4.875Zm3.25,0a.808.808,0,0,0-.571,1.384A.808.808,0,1,0,7.071,5.116.78.78,0,0,0,6.5,4.875Z"/>
</svg>
