<svg class="icon" width="64" height="64" viewBox="0 0 1024 1024" xmlns="http://www.w3.org/2000/svg"><path d="M786.645 181.419l45.27 45.269-573.227 573.227-45.27-45.27L786.646 181.42zm-18.794 167.637c36.138 34.56 71.146 76.95 105.024 127.147a64 64 0 0 1 2.41 67.712l-2.41 3.882-6.059 8.854C759.786 711.765 641.493 789.333 512 789.333c-51.136 0-100.501-12.096-148.139-36.266l48.214-48.214c32.768 13.739 66.069 20.48 99.925 20.48 105.77 0 206.037-65.749 301.952-204.757l5.867-8.576-5.888-8.597c-29.995-43.478-60.416-79.787-91.307-109.12l45.227-45.227zM512 234.666c45.013 0 88.64 9.366 130.944 28.097l-49.408 49.429A253.227 253.227 0 0 0 512 298.667c-105.77 0-206.037 65.749-301.952 204.757L204.181 512l5.888 8.597c25.856 37.462 52.011 69.59 78.507 96.555l-45.205 45.205c-31.616-32.106-62.379-70.293-92.246-114.56a64 64 0 0 1-2.41-67.712l2.41-3.882 6.059-8.854C264.214 312.235 382.507 234.667 512 234.667zm133.696 236.587a141.483 141.483 0 0 1-180.075 180.075l56.96-56.96a77.525 77.525 0 0 0 66.176-66.176l56.939-56.96zM512 376.128c5.61 0 11.157.32 16.597.96L371.5 534.208A141.483 141.483 0 0 1 512 376.149z"/></svg>