<svg class="icon" width="64" height="64" viewBox="0 0 1024 1024" xmlns="http://www.w3.org/2000/svg"><path d="M512 149.333c200.299 0 362.667 162.368 362.667 362.667S712.299 874.667 512 874.667 149.333 712.299 149.333 512 311.701 149.333 512 149.333zm0 64c-164.95 0-298.667 133.718-298.667 298.667S347.051 810.667 512 810.667 810.667 676.949 810.667 512 676.949 213.333 512 213.333zm-64 141.312a42.667 42.667 0 0 1 22.741 6.571l176.534 111.232a42.667 42.667 0 0 1 .32 71.979L471.06 657.856a42.667 42.667 0 0 1-65.728-35.883v-224.64A42.667 42.667 0 0 1 448 354.667zm21.333 81.323v146.923l115.456-74.176-115.456-72.747z"/></svg>