<svg width="14" height="14" xmlns="http://www.w3.org/2000/svg"><path d="M13.44 1.26H10.5V.14a.14.14 0 0 0-.14-.14h-.98a.14.14 0 0 0-.14.14v1.12H4.76V.14A.14.14 0 0 0 4.62 0h-.98a.14.14 0 0 0-.14.14v1.12H.56a.56.56 0 0 0-.56.56v11.62c0 .31.25.56.56.56h12.88c.31 0 .56-.25.56-.56V1.82a.56.56 0 0 0-.56-.56zm-.7 11.48H1.26V2.52H3.5v.84c0 .077.063.14.14.14h.98a.14.14 0 0 0 .14-.14v-.84h4.48v.84c0 .077.063.14.14.14h.98a.14.14 0 0 0 .14-.14v-.84h2.24v10.22zm-2.66-7.35h-.966a.284.284 0 0 0-.228.115l-2.64 3.637-1.133-1.557a.282.282 0 0 0-.227-.116H3.92a.14.14 0 0 0-.114.222l2.212 3.045a.282.282 0 0 0 .455 0l3.72-5.122a.142.142 0 0 0-.113-.224z"/></svg>