<svg class="icon" width="64" height="64" viewBox="0 0 1024 1024" xmlns="http://www.w3.org/2000/svg"><path d="M810.667 192a64 64 0 0 1 64 64v405.333a64 64 0 0 1-64 64H490.539l-157.44 122.454a21.333 21.333 0 0 1-34.432-16.854v-105.6h-85.334a64 64 0 0 1-64-64V256a64 64 0 0 1 64-64h597.334zm0 64H213.333v405.333h149.334v82.368l105.92-82.368h342.08V256zm-279.744 53.333v29.27c9.472 2.346 17.664 6.016 24.533 11.072 8.747 6.421 16.79 15.914 24.235 28.373l5.802 9.728-48.17 25.11-5.12-8.747c-6.955-11.819-15.062-17.067-25.216-17.067-6.358 0-11.222 1.6-14.976 4.757a12.16 12.16 0 0 0-4.864 10.006c0 3.648 1.152 6.336 3.648 8.682 3.008 2.795 9.962 6.72 20.586 11.392l10.24 4.438c9.856 4.352 18.134 8.469 25.003 12.394 8.725 5.035 15.424 9.963 20.032 14.827 13.27 13.355 20.01 29.781 20.01 48.704 0 18.347-5.973 34.73-17.77 48.725a82.88 82.88 0 0 1-37.888 25.43V608h-47.552v-29.867c-17.259-3.776-31.083-10.368-41.344-19.946-11.947-11.158-20.48-27.776-25.813-49.643l-2.646-10.88 53.206-10.347 2.88 9.046c3.968 12.544 8.64 21.12 13.226 25.408 4.694 4.032 11.264 6.122 20.16 6.122 8.406 0 15.019-2.368 20.374-7.168 5.013-4.48 7.402-10.026 7.402-17.344 0-6.314-1.856-10.837-5.504-14.186a75.03 75.03 0 0 0-11.904-7.894 198.72 198.72 0 0 0-16.789-8.277l-10.688-4.63c-17.707-7.829-29.717-15.189-36.245-22.463a61.632 61.632 0 0 1-17.494-43.819c0-8.021 1.408-15.573 4.224-22.741 2.816-6.955 6.827-13.227 12.032-18.966 5.12-5.504 11.371-10.261 18.731-14.314a92.08 92.08 0 0 1 10.453-4.8l5.654-1.984v-29.974h47.552z"/></svg>