<svg width="14" height="14" xmlns="http://www.w3.org/2000/svg"><path d="M6.125.292H.583a.293.293 0 0 0-.291.291v5.542c0 .16.13.292.291.292h5.542c.16 0 .292-.132.292-.292V.583a.293.293 0 0 0-.292-.291zm-.948 4.885H1.531V1.531h3.646v3.646zm8.24-4.885H7.875a.293.293 0 0 0-.292.291v5.542c0 .16.132.292.292.292h5.542c.16 0 .291-.132.291-.292V.583a.293.293 0 0 0-.291-.291zm-.948 4.885H8.823V1.531h3.646v3.646zM6.125 7.583H.583a.293.293 0 0 0-.291.292v5.542c0 .16.13.291.291.291h5.542c.16 0 .292-.13.292-.291V7.875a.293.293 0 0 0-.292-.292zm-.948 4.886H1.531V8.823h3.646v3.646zm8.24-4.886H7.875a.293.293 0 0 0-.292.292v5.542c0 .16.132.291.292.291h5.542c.16 0 .291-.13.291-.291V7.875a.293.293 0 0 0-.291-.292zm-.948 4.886H8.823V8.823h3.646v3.646z"/></svg>