<svg width="14" height="14" xmlns="http://www.w3.org/2000/svg"><path d="M13.44 0H.56A.56.56 0 0 0 0 .56v12.88c0 .31.25.56.56.56h12.88c.31 0 .56-.25.56-.56V.56a.56.56 0 0 0-.56-.56zm-.7 12.74H1.26V1.26h11.48v11.48zm-6.09-7.7h3.22a.14.14 0 0 0 .14-.14v-.84a.14.14 0 0 0-.14-.14H6.65a.14.14 0 0 0-.14.14v.84c0 .077.063.14.14.14zm0 2.52h3.22a.14.14 0 0 0 .14-.14v-.84a.14.14 0 0 0-.14-.14H6.65a.14.14 0 0 0-.14.14v.84c0 .077.063.14.14.14zm0 2.52h3.22a.14.14 0 0 0 .14-.14V9.1a.14.14 0 0 0-.14-.14H6.65a.14.14 0 0 0-.14.14v.84c0 .077.063.14.14.14zm-2.66-5.6a.7.7 0 1 0 1.4 0 .7.7 0 0 0-1.4 0zm0 2.52a.7.7 0 1 0 1.4 0 .7.7 0 0 0-1.4 0zm0 2.52a.7.7 0 1 0 1.4 0 .7.7 0 0 0-1.4 0z"/></svg>