<svg width="14" height="15" xmlns="http://www.w3.org/2000/svg"><path d="M13.815 9.406l-1.08-.937a6.105 6.105 0 0 0 0-1.935l1.08-.938a.541.541 0 0 0 .154-.59l-.015-.043a7.455 7.455 0 0 0-1.316-2.309l-.03-.035a.525.525 0 0 0-.579-.159l-1.342.484a5.797 5.797 0 0 0-1.645-.964L8.782.557a.533.533 0 0 0-.425-.43L8.312.117a7.353 7.353 0 0 0-2.624 0l-.045.008a.533.533 0 0 0-.426.43l-.26 1.43a5.789 5.789 0 0 0-1.635.961L1.971 2.46a.523.523 0 0 0-.58.16l-.03.034a7.494 7.494 0 0 0-1.315 2.31l-.015.043a.543.543 0 0 0 .154.589l1.094.948a5.973 5.973 0 0 0 0 1.912l-1.094.947a.541.541 0 0 0-.154.59l.015.043a7.475 7.475 0 0 0 1.316 2.309l.03.035c.141.169.37.233.579.159l1.351-.487a5.75 5.75 0 0 0 1.635.96l.26 1.43c.04.22.21.39.426.43l.045.01a7.316 7.316 0 0 0 2.624 0l.045-.01a.533.533 0 0 0 .426-.43l.259-1.423a5.758 5.758 0 0 0 1.645-.964l1.342.484a.523.523 0 0 0 .58-.16l.03-.034a7.494 7.494 0 0 0 1.315-2.309l.015-.044a.539.539 0 0 0-.154-.586zm-2.253-2.675a4.804 4.804 0 0 1 0 1.544l-.109.671 1.233 1.07a6.217 6.217 0 0 1-.703 1.232l-1.532-.55-.518.431a4.597 4.597 0 0 1-1.309.767l-.629.24-.295 1.623a6.144 6.144 0 0 1-1.403 0L6 12.132l-.624-.243a4.603 4.603 0 0 1-1.299-.765l-.518-.433-1.541.555a6.35 6.35 0 0 1-.704-1.232l1.247-1.08-.108-.67a4.888 4.888 0 0 1-.06-.761c0-.256.019-.512.06-.762l.108-.67-1.247-1.08c.187-.436.423-.848.704-1.232l1.541.556.518-.433a4.603 4.603 0 0 1 1.3-.765l.625-.24.295-1.627a6.144 6.144 0 0 1 1.404 0l.295 1.624.629.24c.474.18.914.438 1.309.766l.518.432 1.532-.55c.28.382.515.796.703 1.231l-1.233 1.07.107.668zM7.002 4.39c-1.605 0-2.905 1.32-2.905 2.947s1.3 2.946 2.905 2.946c1.604 0 2.905-1.32 2.905-2.946 0-1.628-1.301-2.947-2.905-2.947zM8.309 8.66a1.83 1.83 0 0 1-2.615 0 1.882 1.882 0 0 1-.541-1.325c0-.501.193-.972.541-1.326.35-.355.814-.55 1.308-.55.493 0 .957.195 1.307.55.348.354.541.825.541 1.326 0 .5-.193.97-.541 1.325z"/></svg>