<svg class="icon" width="200" height="200" viewBox="0 0 1024 1024" xmlns="http://www.w3.org/2000/svg"><path d="M512 279.273c171.985 0 328.61 162.909 388.422 232.727C840.61 581.818 683.985 744.727 512 744.727S183.39 581.818 123.578 512C183.39 442.182 340.015 279.273 512 279.273m0-69.818c-213.41 0-394.24 198.516-455.215 273.92a44.916 44.916 0 0 0 0 57.25C117.76 616.03 298.59 814.545 512 814.545s394.24-198.516 455.215-273.92a44.916 44.916 0 0 0 0-57.25C906.24 407.97 725.41 209.455 512 209.455zm0 232.727A69.818 69.818 0 1 1 442.182 512 69.818 69.818 0 0 1 512 442.182m0-69.818A139.636 139.636 0 1 0 651.636 512 139.636 139.636 0 0 0 512 372.364z"/></svg>