<svg class="icon" width="200" height="200" viewBox="0 0 1024 1024" xmlns="http://www.w3.org/2000/svg"><path d="M558.545 570.182a174.545 174.545 0 0 1 174.313 165.236l.233 9.31v69.817a34.91 34.91 0 0 1-69.492 4.748l-.326-4.748v-69.818a104.727 104.727 0 0 0-97.56-104.494l-7.168-.233H279.273a104.727 104.727 0 0 0-104.495 97.56l-.233 7.167v69.818a34.91 34.91 0 0 1-69.492 4.748l-.326-4.748v-69.818a174.545 174.545 0 0 1 165.237-174.312l9.309-.233h279.272zm253.068 5.632a174.545 174.545 0 0 1 130.7 159.79l.232 9.123v69.818a34.91 34.91 0 0 1-69.492 4.748l-.326-4.748v-69.818a104.727 104.727 0 0 0-78.522-101.283 34.91 34.91 0 1 1 17.408-67.63zM418.91 151.273a174.545 174.545 0 1 1 0 349.09 174.545 174.545 0 0 1 0-349.09zm253.021 5.585a174.545 174.545 0 0 1 0 338.246 34.91 34.91 0 1 1-17.315-67.677 104.727 104.727 0 0 0 0-202.892 34.91 34.91 0 1 1 17.315-67.63zm-253.02 64.233a104.727 104.727 0 1 0 0 209.454 104.727 104.727 0 0 0 0-209.454z"/></svg>